# xmcd CD database file
#
# Track frame offsets:
#	150
#	18943
#	34703
#	47528
#	62188
#	79635
#	97143
#	111398
#	127615
#	141180
#
# Disc length: 2110 seconds
#
# Revision: 0
# Processed by: cddbd v1.4PL0 Copyright (c) Steve Scherf et al.
# Submitted via: CDex 1.50Beta7
#
DISCID=7d083c0a
DTITLE=The Four Brothers - Together Again!
DYEAR=1900
DGENRE=Jazz
TTITLE0=Four And One Moore
TTITLE1=So Blue
TTITLE2=The Swinging Door
TTITLE3=Four In Hand
TTITLE4=A Quick One
TTITLE5=Four Brothers
TTITLE6=Ten Years Later
TTITLE7=The Pretty One
TTITLE8=Aged In Wood
TTITLE9=Here We Go Again
EXTD=
EXTT0=
EXTT1=
EXTT2=
EXTT3=
EXTT4=
EXTT5=
EXTT6=
EXTT7=
EXTT8=
EXTT9=
PLAYORDER=
